<svg xmlns="http://www.w3.org/2000/svg" viewBox="0 0 400 560">
  <!-- Fondo de la carta -->
  <defs>
    <linearGradient id="cardGradient" x1="0%" y1="0%" x2="100%" y2="100%">
      <stop offset="0%" style="stop-color:#1a1c3f;stop-opacity:1" />
      <stop offset="100%" style="stop-color:#2a3f6f;stop-opacity:1" />
    </linearGradient>
    
    <!-- Patrón de hexágonos para el fondo -->
    <pattern id="hexPattern" width="30" height="30" patternUnits="userSpaceOnUse">
      <path d="M15,0 L30,7.5 L30,22.5 L15,30 L0,22.5 L0,7.5 Z" 
            fill="none" 
            stroke="#304878" 
            stroke-width="0.5"
            opacity="0.3"/>
    </pattern>

    <!-- Patrón de autenticación holográfico -->
    <pattern id="holoPattern" width="50" height="50" patternUnits="userSpaceOnUse">
      <path d="M0,25 Q12.5,0 25,25 T50,25" 
            fill="none" 
            stroke="url(#holoGradient)"
            stroke-width="0.5"/>
      <animateTransform
        attributeName="patternTransform"
        type="translate"
        from="0,0"
        to="50,0"
        dur="3s"
        repeatCount="indefinite"/>
    </pattern>

    <linearGradient id="holoGradient" x1="0%" y1="0%" x2="100%" y2="0%">
      <stop offset="0%" style="stop-color:#ff00ff;stop-opacity:0.3">
        <animate attributeName="stop-color" 
                values="#ff00ff;#00ffff;#ff00ff"
                dur="3s" 
                repeatCount="indefinite"/>
      </stop>
      <stop offset="100%" style="stop-color:#00ffff;stop-opacity:0.3">
        <animate attributeName="stop-color" 
                values="#00ffff;#ff00ff;#00ffff"
                dur="3s" 
                repeatCount="indefinite"/>
      </stop>
    </linearGradient>
  </defs>

  <!-- Marco principal -->
  <rect width="400" height="560" rx="20" ry="20" fill="url(#cardGradient)"/>
  <rect width="400" height="560" rx="20" ry="20" fill="url(#hexPattern)"/>
  
  <!-- Borde holográfico -->
  <rect x="10" y="10" width="380" height="540" rx="15" ry="15" 
        fill="none" stroke="url(#holoPattern)" stroke-width="4"/>

  <!-- Círculo superior para la bacteria -->
  <circle cx="200" cy="180" r="120" fill="#0a192f"/>
  
  <!-- Bacteria estilizada -->
  <g transform="translate(200,180)">
    <!-- Cuerpo principal de la bacteria -->
    <path d="M-40,-20 C-30,-50 30,-50 40,-20 C60,0 60,40 40,60 C20,80 -20,80 -40,60 C-60,40 -60,0 -40,-20" 
          fill="#39ff14" opacity="0.8"/>
    
    <!-- Detalles internos -->
    <circle cx="-15" cy="0" r="8" fill="#0a192f"/>
    <circle cx="15" cy="0" r="8" fill="#0a192f"/>
    <path d="M-20,20 C-10,30 10,30 20,20" 
          fill="none" stroke="#0a192f" stroke-width="3"/>
    
    <!-- Flagelos -->
    <path d="M0,-30 C10,-40 20,-35 30,-45 M0,-30 C-10,-40 -20,-35 -30,-45"
          fill="none" stroke="#39ff14" stroke-width="2"/>
  </g>

  <!-- Título -->
  <text x="200" y="340" 
        font-family="Arial Black" 
        font-size="24" 
        fill="#d4af37" 
        text-anchor="middle"
        font-weight="bold">E. COLI</text>

  <!-- Stats -->
  <g transform="translate(50,380)">
    <text x="0" y="0" font-family="Arial" font-size="16" fill="#fff">RESISTENCIA</text>
    <rect x="120" y="-15" width="200" height="20" rx="10" ry="10" fill="#304878"/>
    <rect x="120" y="-15" width="160" height="20" rx="10" ry="10" fill="#39ff14"/>
  </g>

  <g transform="translate(50,420)">
    <text x="0" y="0" font-family="Arial" font-size="16" fill="#fff">VIRULENCIA</text>
    <rect x="120" y="-15" width="200" height="20" rx="10" ry="10" fill="#304878"/>
    <rect x="120" y="-15" width="180" height="20" rx="10" ry="10" fill="#39ff14"/>
  </g>

  <g transform="translate(50,460)">
    <text x="0" y="0" font-family="Arial" font-size="16" fill="#fff">MUTACIÓN</text>
    <rect x="120" y="-15" width="200" height="20" rx="10" ry="10" fill="#304878"/>
    <rect x="120" y="-15" width="140" height="20" rx="10" ry="10" fill="#39ff14"/>
  </g>

  <!-- Sello de autenticidad -->
  <g transform="translate(340,50)">
    <circle cx="0" cy="0" r="30" fill="url(#holoGradient)" opacity="0.8"/>
    <text x="0" y="5" 
          font-family="Courier" 
          font-size="8" 
          fill="#ffffff" 
          text-anchor="middle">VERIFIED</text>
  </g>

  <!-- Número de serie único -->
  <text x="20" y="40" 
        font-family="Courier" 
        font-size="10" 
        fill="#d4af37">ID: #2024-0001-ABCD</text>

  <!-- Info -->
  <text x="200" y="520" 
        font-family="Arial" 
        font-size="12" 
        fill="#fff" 
        text-anchor="middle">
    GRAM NEGATIVA • ENTEROBACTERIA • NIVEL DE RIESGO: ★★★
  </text>

  <!-- QR Code placeholder (simulado) -->
  <g transform="translate(20,480)">
    <rect x="0" y="0" width="40" height="40" fill="#ffffff"/>
    <path d="M0,0 h40 v40 h-40 v-40 M10,10 h20 v20 h-20 v-20" 
          fill="#000000" fill-rule="evenodd"/>
  </g>
</svg>
